<mxfile host="Electron" modified="2023-12-27T09:22:38.577Z" agent="Mozilla/5.0 (Macintosh; Intel Mac OS X 10_15_7) AppleWebKit/537.36 (KHTML, like Gecko) draw.io/22.1.11 Chrome/114.0.5735.289 Electron/25.9.8 Safari/537.36" etag="63Eby2OyYRVl1Qy-4lu2" version="22.1.11" type="device">
  <diagram name="Pagina-1" id="J2iSj8vhKg2DtZbsvyoK">
    <mxGraphModel dx="954" dy="611" grid="1" gridSize="10" guides="1" tooltips="1" connect="1" arrows="1" fold="1" page="1" pageScale="1" pageWidth="827" pageHeight="1169" math="0" shadow="0">
      <root>
        <mxCell id="0" />
        <mxCell id="1" parent="0" />
        <mxCell id="WNTWP6-LdwZCGLrHjm9A-30" style="edgeStyle=orthogonalEdgeStyle;rounded=0;orthogonalLoop=1;jettySize=auto;html=1;exitX=0.5;exitY=0;exitDx=0;exitDy=0;exitPerimeter=0;endArrow=block;endFill=0;" parent="1" source="WNTWP6-LdwZCGLrHjm9A-2" edge="1">
          <mxGeometry relative="1" as="geometry">
            <mxPoint x="105" y="210" as="targetPoint" />
          </mxGeometry>
        </mxCell>
        <mxCell id="WNTWP6-LdwZCGLrHjm9A-2" value="Abbonato" style="shape=umlActor;verticalLabelPosition=bottom;verticalAlign=top;html=1;outlineConnect=0;" parent="1" vertex="1">
          <mxGeometry x="90" y="420" width="30" height="60" as="geometry" />
        </mxCell>
        <mxCell id="WNTWP6-LdwZCGLrHjm9A-6" value="Utente" style="shape=umlActor;verticalLabelPosition=bottom;verticalAlign=top;html=1;outlineConnect=0;" parent="1" vertex="1">
          <mxGeometry x="90" y="120" width="30" height="60" as="geometry" />
        </mxCell>
        <mxCell id="WNTWP6-LdwZCGLrHjm9A-15" value="&lt;div&gt;REGISTRAZIONE&lt;/div&gt;" style="ellipse;whiteSpace=wrap;html=1;" parent="1" vertex="1">
          <mxGeometry x="440" y="10" width="160" height="60" as="geometry" />
        </mxCell>
        <mxCell id="WNTWP6-LdwZCGLrHjm9A-16" value="LOGIN" style="ellipse;whiteSpace=wrap;html=1;" parent="1" vertex="1">
          <mxGeometry x="440" y="70" width="160" height="60" as="geometry" />
        </mxCell>
        <mxCell id="WNTWP6-LdwZCGLrHjm9A-17" value="SCRITTURA STORIA" style="ellipse;whiteSpace=wrap;html=1;" parent="1" vertex="1">
          <mxGeometry x="440" y="200" width="160" height="60" as="geometry" />
        </mxCell>
        <mxCell id="WNTWP6-LdwZCGLrHjm9A-18" value="GIOCARE A UNA STORIA" style="ellipse;whiteSpace=wrap;html=1;" parent="1" vertex="1">
          <mxGeometry x="310" y="430" width="160" height="60" as="geometry" />
        </mxCell>
        <mxCell id="WNTWP6-LdwZCGLrHjm9A-19" value="&lt;div&gt;PAGAMENTO&lt;/div&gt;" style="ellipse;whiteSpace=wrap;html=1;" parent="1" vertex="1">
          <mxGeometry x="580" y="430" width="160" height="60" as="geometry" />
        </mxCell>
        <mxCell id="WNTWP6-LdwZCGLrHjm9A-20" value="&lt;div&gt;RICERCA/VISUALIZZAZIONE&lt;/div&gt;&lt;div&gt;STORIE&lt;/div&gt;" style="ellipse;whiteSpace=wrap;html=1;" parent="1" vertex="1">
          <mxGeometry x="440" y="130" width="160" height="70" as="geometry" />
        </mxCell>
        <mxCell id="WNTWP6-LdwZCGLrHjm9A-27" value="" style="endArrow=none;html=1;rounded=0;entryX=0;entryY=0.5;entryDx=0;entryDy=0;" parent="1" target="WNTWP6-LdwZCGLrHjm9A-16" edge="1">
          <mxGeometry width="50" height="50" relative="1" as="geometry">
            <mxPoint x="130" y="160" as="sourcePoint" />
            <mxPoint x="440" y="230" as="targetPoint" />
          </mxGeometry>
        </mxCell>
        <mxCell id="WNTWP6-LdwZCGLrHjm9A-28" value="" style="endArrow=none;html=1;rounded=0;entryX=0;entryY=0.5;entryDx=0;entryDy=0;" parent="1" target="WNTWP6-LdwZCGLrHjm9A-15" edge="1">
          <mxGeometry width="50" height="50" relative="1" as="geometry">
            <mxPoint x="130" y="160" as="sourcePoint" />
            <mxPoint x="440" y="230" as="targetPoint" />
          </mxGeometry>
        </mxCell>
        <mxCell id="WNTWP6-LdwZCGLrHjm9A-29" value="" style="endArrow=none;html=1;rounded=0;exitX=0;exitY=0.5;exitDx=0;exitDy=0;" parent="1" source="WNTWP6-LdwZCGLrHjm9A-20" edge="1">
          <mxGeometry width="50" height="50" relative="1" as="geometry">
            <mxPoint x="390" y="140" as="sourcePoint" />
            <mxPoint x="130" y="160" as="targetPoint" />
          </mxGeometry>
        </mxCell>
        <mxCell id="WNTWP6-LdwZCGLrHjm9A-31" value="" style="endArrow=none;html=1;rounded=0;entryX=0;entryY=0.5;entryDx=0;entryDy=0;" parent="1" target="WNTWP6-LdwZCGLrHjm9A-17" edge="1">
          <mxGeometry width="50" height="50" relative="1" as="geometry">
            <mxPoint x="130" y="160" as="sourcePoint" />
            <mxPoint x="440" y="330" as="targetPoint" />
          </mxGeometry>
        </mxCell>
        <mxCell id="WNTWP6-LdwZCGLrHjm9A-32" value="" style="endArrow=none;html=1;rounded=0;entryX=0;entryY=0.5;entryDx=0;entryDy=0;" parent="1" target="WNTWP6-LdwZCGLrHjm9A-18" edge="1">
          <mxGeometry width="50" height="50" relative="1" as="geometry">
            <mxPoint x="130" y="460" as="sourcePoint" />
            <mxPoint x="440" y="320" as="targetPoint" />
          </mxGeometry>
        </mxCell>
        <mxCell id="WNTWP6-LdwZCGLrHjm9A-34" value="" style="endArrow=blockThin;dashed=1;html=1;rounded=0;exitX=1;exitY=0.5;exitDx=0;exitDy=0;entryX=0;entryY=0.5;entryDx=0;entryDy=0;startArrow=none;startFill=0;endFill=1;" parent="1" source="WNTWP6-LdwZCGLrHjm9A-18" target="WNTWP6-LdwZCGLrHjm9A-19" edge="1">
          <mxGeometry width="50" height="50" relative="1" as="geometry">
            <mxPoint x="390" y="370" as="sourcePoint" />
            <mxPoint x="440" y="320" as="targetPoint" />
          </mxGeometry>
        </mxCell>
        <mxCell id="WNTWP6-LdwZCGLrHjm9A-35" value="&lt;div&gt;Include&lt;/div&gt;" style="edgeLabel;html=1;align=center;verticalAlign=middle;resizable=0;points=[];" parent="WNTWP6-LdwZCGLrHjm9A-34" vertex="1" connectable="0">
          <mxGeometry x="0.1818" y="-3" relative="1" as="geometry">
            <mxPoint x="-9" y="-13" as="offset" />
          </mxGeometry>
        </mxCell>
        <mxCell id="t2Vg3p3C_4UZHK0g0hSF-1" value="GESTIONE STORIE SCRITTE&amp;nbsp;" style="ellipse;whiteSpace=wrap;html=1;" parent="1" vertex="1">
          <mxGeometry x="440" y="260" width="160" height="60" as="geometry" />
        </mxCell>
        <mxCell id="t2Vg3p3C_4UZHK0g0hSF-2" value="" style="endArrow=none;html=1;rounded=0;entryX=0.019;entryY=0.367;entryDx=0;entryDy=0;entryPerimeter=0;" parent="1" target="t2Vg3p3C_4UZHK0g0hSF-1" edge="1">
          <mxGeometry width="50" height="50" relative="1" as="geometry">
            <mxPoint x="130" y="160" as="sourcePoint" />
            <mxPoint x="440" y="210" as="targetPoint" />
          </mxGeometry>
        </mxCell>
        <mxCell id="t2Vg3p3C_4UZHK0g0hSF-3" value="GESTIONE STORIE GIOCATE&amp;nbsp;" style="ellipse;whiteSpace=wrap;html=1;" parent="1" vertex="1">
          <mxGeometry x="310" y="510" width="160" height="60" as="geometry" />
        </mxCell>
        <mxCell id="t2Vg3p3C_4UZHK0g0hSF-4" value="" style="endArrow=none;html=1;rounded=0;" parent="1" target="t2Vg3p3C_4UZHK0g0hSF-3" edge="1">
          <mxGeometry width="50" height="50" relative="1" as="geometry">
            <mxPoint x="130" y="460" as="sourcePoint" />
            <mxPoint x="440" y="210" as="targetPoint" />
          </mxGeometry>
        </mxCell>
        <mxCell id="t2Vg3p3C_4UZHK0g0hSF-5" value="LOGOUT" style="ellipse;whiteSpace=wrap;html=1;" parent="1" vertex="1">
          <mxGeometry x="440" y="320" width="160" height="60" as="geometry" />
        </mxCell>
        <mxCell id="t2Vg3p3C_4UZHK0g0hSF-6" value="" style="endArrow=none;html=1;rounded=0;" parent="1" target="t2Vg3p3C_4UZHK0g0hSF-5" edge="1">
          <mxGeometry width="50" height="50" relative="1" as="geometry">
            <mxPoint x="130" y="160" as="sourcePoint" />
            <mxPoint x="420" y="280" as="targetPoint" />
          </mxGeometry>
        </mxCell>
      </root>
    </mxGraphModel>
  </diagram>
</mxfile>
